<svg id="LOGO" data-name="LOGO" xmlns="http://www.w3.org/2000/svg" viewBox="0 0 1000 1000">
    <defs>
        <style>.green{fill:#8dc63f;}</style>
    </defs>
    <path class="green"
          d="M580.25,519q-.19-10.44-.86-21h0q-1.51-24.6-5.53-50.17a335.61,335.61,0,0,0-36.35,16.37,457,457,0,0,1,4.24,78.16v.47c0,1.13-.08,2.25-.13,3.38,0,.56-.06,1.12-.08,1.67l-.15,2.81-.15,2.45c0,.71-.09,1.46-.14,2.19-.1,1.43-.2,2.84-.32,4.23a2,2,0,0,1,0,.48c-.13,1.69-.28,3.39-.44,5.07l0,.42c-.15,1.54-.3,3.07-.47,4.61a4.81,4.81,0,0,1-.08.65c-.16,1.51-.34,3-.52,4.51a2.32,2.32,0,0,1-.06.45q-1.25,10.11-3.05,19.93L536,596c-.28,1.48-.56,3-.85,4.42L535,601c-.3,1.5-.61,3-.93,4.49l-.06.3c-.34,1.61-.7,3.22-1.07,4.82a.4.4,0,0,1-.05.23q-.49,2.08-1,4.14c-.15.63-.31,1.26-.47,1.89-.2.8-.41,1.59-.61,2.39l-.63,2.42c-.15.56-.31,1.12-.46,1.68-.27,1-.53,1.92-.8,2.86-.06.22-.13.45-.2.67a303.22,303.22,0,0,1-47.6,97.21q-2.86,3.87-5.82,7.66C445,716.52,399.8,705.52,350.77,702q-17.91-1.24-35.87-1.22A314.08,314.08,0,0,0,289,651.38a342.64,342.64,0,0,0-48.28-59.57c-41.32-40.7-89.92-67.33-140.69-77.15q.72,15.26,2.61,30.5.6,4.85,1.31,9.66c39.32,10,77.05,32,109.89,64.3a305.3,305.3,0,0,1,59.9,83.44,526.42,526.42,0,0,0-104.13,19.22,398,398,0,0,0,25,32.92,481,481,0,0,1,153.46-14.35c42.54,3,77.43,11.73,100.58,21.47a375.92,375.92,0,0,1-60.31,48.45,473.2,473.2,0,0,1-75.28,39.54,396.6,396.6,0,0,0,46.6,20.86,489.25,489.25,0,0,0,49.55-28.33,411.92,411.92,0,0,0,71.62-58.65c11.1,12,23.79,29.53,33.93,53.87a235.46,235.46,0,0,1,15.43,57.34q9.6-.71,19.17-1.91t18.91-2.81a274.23,274.23,0,0,0-18-67.35c-3-7.11-6.12-13.75-9.4-19.94,20.76-3.24,48.72-4.71,70.94-4.21,28.48.65,49.22,3.88,63.14,7.93A293.71,293.71,0,0,1,669.87,766c-16.32-3.23-36-5.17-57.2-5.65-35.08-.8-71.3,2.4-94.43,8q-5.72-7.12-12.05-13.7,3-3.84,5.86-7.74a341.5,341.5,0,0,0,39.61-69.68q4.58-10.8,8.39-22a.86.86,0,0,1,.07-.21l1.44-4.21.53-1.66c.31-1,.63-1.92.93-2.87a361.76,361.76,0,0,0,9.59-37.41,391.51,391.51,0,0,0,6.24-44.6c0-.45.08-.89.11-1.34v-.25c24.26,16.25,47.69,41.31,69.95,74.74A491.7,491.7,0,0,1,676,683.6q2-9.87,4.53-19.73,4.31-16.46,10-32.49-4.81-7.82-9.74-15.24C650,569.85,616.17,537.2,580.25,519ZM225.39,316.93s7.26-30.42-7.37-51.75-45.64-25.5-45.64-25.5-7.26,30.42,7.38,51.75S225.39,316.93,225.39,316.93ZM152.16,442.26c21.53-14.36,26.1-45.3,26.1-45.3s-30.3-7.66-51.85,6.7S100.31,449,100.31,449,130.64,456.62,152.16,442.26Z"/>
    <path class="green"
          d="M318.32,526s-3.81-31-25-45.92-51.67-8-51.67-8,3.82,31,25,45.92S318.32,526,318.32,526Zm48.21-189.19S353.16,365.11,363.1,389s39.42,34.35,39.42,34.35,13.36-28.27,3.43-52.16S366.53,336.83,366.53,336.83Zm56.75-37.68c-6.22,25.11,11.25,51.06,11.25,51.06s27.56-14.78,33.79-39.89-11.24-51.06-11.24-51.06-27.57,14.78-33.8,39.89ZM535.65,148c21-15,24.62-46.12,24.62-46.12s-30.57-6.65-51.61,8.41-24.57,46.14-24.57,46.14S514.62,163.08,535.65,148ZM444,851.28c-11.16,23.35.71,52.26.71,52.26s30-8.92,41.14-32.27-.72-52.25-.72-52.25-30,8.92-41.13,32.26Zm183.59-27.71c-23.19-11.46-52.25,0-52.25,0s8.53,30.06,31.72,41.55,52.25,0,52.25,0-8.52-30.1-31.72-41.56Zm-37.8-141.16c-2.31,25.77,18.93,48.72,18.93,48.72s25-18.82,27.29-44.59-19-48.73-19-48.73S592,656.64,589.75,682.41ZM439.1,639.33c-15.75,20.55-10,51.3-10,51.3s31.18-2.56,46.9-23.11,10-51.3,10-51.3-31.18,2.56-46.89,23.11ZM316.61,651s26.58,16.47,51.44,9.31,38.6-35.26,38.6-35.26-26.58-16.46-51.45-9.31S316.61,651,316.61,651ZM214.07,679.06s-9.53-29.8-33.09-40.48-52.25,1.79-52.25,1.79,9.52,29.79,33.08,40.47S214.07,679.06,214.07,679.06ZM789.94,348.14s22.71,21.47,48.51,19.49,44.9-26.77,44.9-26.77-22.71-21.47-48.5-19.49S789.94,348.14,789.94,348.14Zm-43.76-81.76s21.8-22.46,20.12-48.23-26.18-45.24-26.18-45.24S718.33,195.33,720,221.15s26.19,45.23,26.19,45.23Zm-181.8,56.75s28.8,12.22,52.26,1.33,32.73-40.77,32.73-40.77-28.79-12.22-52.25-1.33S564.38,323.13,564.38,323.13Zm96.27,107.31c-25.66-3.33-49.45,17-49.45,17s17.81,25.71,43.46,29,49.49-17,49.49-17-17.84-25.72-43.5-29.06ZM676.18,560.9c18.61,18,49.83,15.8,49.83,15.8s1-31.26-17.63-49.22-49.85-15.79-49.85-15.79S657.55,543,676.18,560.9Zm125.4,90.58s-21,23.14-18.51,48.89,27.68,44.38,27.68,44.38,21-23.14,18.51-48.89S801.58,651.48,801.58,651.48Z"/>
    <path class="green"
          d="M213.46,377.6c-7.57,19.61-20.28,44.56-31.86,63.55-14.79,24.34-28,40.68-38.42,50.71a295,295,0,0,1,37.71,15.93c10.94-12.52,22.46-28.57,33.49-46.72,18.22-30,33.57-62.94,40.29-85.78,6.5-1,12.47-2.22,17.9-3.57A343,343,0,0,0,355.6,493l1,.92,2,1.92q1.61,1.49,3.23,2.95c.76.72,1.53,1.36,2.29,2l1.84,1.63,2.31,2,1.59,1.37c1.53,1.3,3.08,2.59,4.63,3.88l1.19,1c.9.72,1.81,1.44,2.71,2.2l1.37,1.1q4.36,3.48,8.87,6.86l1.76,1.33,1.44,1.07q5.19,3.82,10.54,7.51c-26.23,12.84-59.63,20.63-99.71,23.2a495.26,495.26,0,0,1-53.53.37Q256.7,561,264,568.1,276.1,580,287.1,593q9.18-.24,18.06-.81c55.52-3.58,100.7-16.53,134.44-38.53a528.35,528.35,0,0,0,63.54,29.52,337.11,337.11,0,0,0,4-39.72,452.37,452.37,0,0,1-74-38.35q-10.2-6.6-19.78-13.74l-1.56-1.17c-1.46-1.09-2.9-2.2-4.33-3.31l-1.24-1c-.71-.54-1.39-1.09-2.08-1.64l-1.92-1.54c-.6-.47-1.18-1-1.77-1.43-1.22-1-2.44-2-3.64-3l-.14-.11q-2-1.69-4-3.42l-.33-.28c-37.94-33-66.24-72.59-84.57-118.11,28.4-18.61,60.52-52.26,88-93,6.09-9,12.53-19.2,19.05-30.56A301.49,301.49,0,0,0,455,235.47q7.68,0,15.52-.35a343.21,343.21,0,0,0,75.74-12c55.89-15.44,103.24-44.21,137.12-83.26a394.15,394.15,0,0,0-36.78-16.63c-28.28,29-66.21,50.67-110.56,62.92A305.19,305.19,0,0,1,434,196.31a526.83,526.83,0,0,0,35.41-99.85q-9.45.72-18.91,1.9-11.11,1.38-22.08,3.37A481.08,481.08,0,0,1,364,242c-23.87,35.33-48.88,61.19-68.87,76.41-.1-.36-.19-.72-.29-1.08C286.66,286,282.58,252,282.75,216.47a490.6,490.6,0,0,1,4-59.59,401.64,401.64,0,0,0-41.36,29.75q-.94,15-1,29.66c-.18,38.91,4.3,76.16,13.38,110.72.73,2.78,1.48,5.55,2.27,8.3-16,3.58-37.46,5.83-63.61,2.44A235.52,235.52,0,0,1,139,322.43q-8.26,17.28-14.89,35.36a273.93,273.93,0,0,0,67.38,18q10.94,1.4,22,1.81Z"/>
    <path class="green"
          d="M755.89,407A376.31,376.31,0,0,1,828,435a474,474,0,0,1,72,45.52q-.66-17.18-2.78-34.36-1-8.24-2.38-16.4a492.45,492.45,0,0,0-49.49-29,411.58,411.58,0,0,0-86.61-32.69c4.85-15.62,13.68-35.37,29.69-56.32a235.79,235.79,0,0,1,42-42q-10.86-15.93-23.1-30.64A274.9,274.9,0,0,0,758,288.53c-4.67,6.12-8.84,12.17-12.57,18.11-13.15-16.37-28.4-39.81-39.09-59.35-13.68-25-21.24-44.56-24.71-58.64a292.15,292.15,0,0,1-32.64,24.7c5.36,15.75,13.51,33.74,23.71,52.37,16.84,30.78,37.72,60.54,54.14,77.78-2.39,6.13-4.3,11.92-5.85,17.29-3.22-.45-6.43-.86-9.63-1.21-50.31-5.6-100.71,0-149.83,16.57a393.42,393.42,0,0,0-43.19,17.58c2-29.14,12-62,29.77-98a495.12,495.12,0,0,1,26.45-46.53q-9.53,3.21-19.33,5.94c-10.92,3-22,5.52-33.15,7.54q-4.38,8.09-8.33,16.06c-24.68,49.88-36,95.49-33.85,135.72a524.46,524.46,0,0,0-58.41,41.1,337.65,337.65,0,0,0,32.35,23.3c81.84-63.47,166.93-90.78,253.31-81.18,3.17.35,6.35.76,9.54,1.21,1.89,33.89,15,78.54,36.5,122.74q7.89,16.19,16.94,31.76a313.66,313.66,0,0,0-29.87,47.24,343.66,343.66,0,0,0-27.48,71.58c-14.56,56.09-13.34,111.45,3.51,160.29a400,400,0,0,0,32.84-23.42c-11-39-10.79-82.69.78-127.23a303.37,303.37,0,0,1,42.33-93.65,526.27,526.27,0,0,0,68.72,80.58,399.27,399.27,0,0,0,15.89-38.2,481.3,481.3,0,0,1-89.19-125.75c-18.67-38.32-28.55-72.93-31.72-97.84Zm-392-220.12c9.38-24.11-4.64-52.07-4.64-52.07S330,146,320.62,170.08s4.65,52.07,4.65,52.07,29.22-11.16,38.6-35.25ZM349.62,785.52s-24.26-19.77-49.84-15.81S257,799.77,257,799.77s24.26,19.74,49.83,15.81,42.78-30.06,42.78-30.06Z"/>
    <path class="green"
          d="M825.3,482.85s-5,30.88,11.23,51,47.41,22,47.41,22,5-30.88-11.22-51.06S825.3,482.85,825.3,482.85Z"/>
</svg>
