<svg id="LOGO" data-name="LOGO" xmlns="http://www.w3.org/2000/svg" viewBox="0 0 1000 1000">
    <defs>
        <style>.green{fill:#8dc63f;}</style>
    </defs>
    <path class="green"
          d="M599.43,523.53q-.24-12.93-1.06-26.06h0q-1.89-30.47-6.86-62.17a417,417,0,0,0-45,20.29,568.17,568.17,0,0,1,5.26,96.84V553c0,1.4-.11,2.79-.17,4.19,0,.69-.07,1.38-.1,2.07l-.19,3.47-.18,3c-.06.88-.12,1.82-.18,2.72-.12,1.77-.25,3.52-.39,5.24a2.93,2.93,0,0,1,0,.59c-.17,2.1-.36,4.2-.55,6.29l-.06.51q-.27,2.86-.58,5.71c0,.28-.07.54-.09.81-.21,1.87-.43,3.73-.65,5.6a3.6,3.6,0,0,1-.07.55q-1.56,12.51-3.79,24.7l-.09.48q-.49,2.75-1,5.48l-.14.71q-.55,2.79-1.15,5.57l-.08.36c-.42,2-.87,4-1.32,6a.43.43,0,0,1-.07.28q-.6,2.58-1.23,5.14c-.18.78-.38,1.55-.57,2.33-.25,1-.51,2-.76,3s-.52,2-.79,3c-.18.7-.38,1.39-.56,2.08-.33,1.19-.66,2.39-1,3.55-.07.28-.16.56-.24.84a376,376,0,0,1-59,120.44q-3.54,4.78-7.21,9.49c-37.54-18.93-93.57-32.55-154.32-36.86q-22.19-1.55-44.45-1.51a388.35,388.35,0,0,0-32.12-61.26,425.43,425.43,0,0,0-59.83-73.82C127.5,563.32,67.28,530.33,4.38,518.17Q5.27,537.06,7.61,556q.75,6,1.63,12C58,580.26,104.71,607.54,145.4,647.6c30.44,30,56.49,66.46,74.22,103.39a651.81,651.81,0,0,0-129,23.8,495.8,495.8,0,0,0,31,40.8A596.08,596.08,0,0,1,311.78,797.8c52.7,3.72,95.93,14.54,124.62,26.61a466.28,466.28,0,0,1-74.73,60,587,587,0,0,1-93.27,49,492.94,492.94,0,0,0,57.73,25.84,607.67,607.67,0,0,0,61.4-35.1,509.59,509.59,0,0,0,88.74-72.68c13.76,14.89,29.48,36.6,42,66.75a291.65,291.65,0,0,1,19.12,71q11.9-.88,23.75-2.36t23.44-3.49A339.76,339.76,0,0,0,562.26,900c-3.67-8.81-7.59-17-11.65-24.7,25.72-4,60.38-5.84,87.91-5.22,35.28.8,61,4.81,78.22,9.82a365.64,365.64,0,0,1-6.27-50.33c-20.21-4-44.57-6.41-70.87-7-43.46-1-88.34,3-117,9.91q-7.07-8.84-14.92-17,3.69-4.75,7.26-9.58A422.88,422.88,0,0,0,564,719.57q5.67-13.38,10.4-27.24a1,1,0,0,1,.09-.27c.59-1.73,1.18-3.46,1.77-5.21l.67-2.06c.38-1.19.77-2.38,1.15-3.55A448.54,448.54,0,0,0,590,634.89a487.53,487.53,0,0,0,7.73-55.27c0-.56.1-1.1.14-1.66v-.31c30,20.14,59.08,51.18,86.67,92.61a612.11,612.11,0,0,1,33.55,57.22q2.46-12.21,5.62-24.44,5.33-20.38,12.42-40.25-6-9.69-12.07-18.88c-38.2-57.37-80.09-97.81-124.6-120.38ZM159.74,273.17s9-37.69-9.13-64.12-56.54-31.6-56.54-31.6-9,37.69,9.13,64.12S159.74,273.17,159.74,273.17ZM69,428.46c26.67-17.8,32.34-56.13,32.34-56.13s-37.54-9.5-64.24,8.29S4.77,436.75,4.77,436.75,42.34,446.25,69,428.46Z"/>
    <path class="green"
          d="M274.89,532.24s-4.72-38.46-30.95-56.9-64-9.86-64-9.86,4.73,38.46,31,56.9S274.89,532.24,274.89,532.24Zm59.73-234.41s-16.56,35-4.25,64.63S379.21,405,379.21,405s16.56-35,4.25-64.64S334.62,297.83,334.62,297.83Zm70.32-46.7c-7.71,31.12,13.94,63.27,13.94,63.27S453,296.09,460.75,265s-13.93-63.27-13.93-63.27S412.66,220,404.94,251.13ZM544.17,63.86c26.07-18.63,30.5-57.15,30.5-57.15S536.8-1.53,510.74,17.13s-30.45,57.18-30.45,57.18S518.12,82.55,544.17,63.86ZM430.56,935.25c-13.83,28.94.89,64.75.89,64.75s37.14-11,51-40-.89-64.75-.89-64.75-37.14,11.05-51,40Zm227.49-34.34c-28.74-14.19-64.75.06-64.75.06s10.56,37.26,39.3,51.49,64.75-.05,64.75-.05-10.57-37.29-39.3-51.5ZM611.2,726c-2.86,31.93,23.46,60.37,23.46,60.37s31-23.32,33.81-55.25S645,670.76,645,670.76,614.05,694.08,611.2,726ZM424.54,672.64C405,698.1,412.12,736.2,412.12,736.2s38.62-3.17,58.1-28.64S482.64,644,482.64,644s-38.63,3.17-58.1,28.64ZM272.77,687.1s32.94,20.4,63.74,11.53,47.82-43.69,47.82-43.69-32.93-20.4-63.74-11.53-47.82,43.69-47.82,43.69Zm-127,34.76s-11.8-36.92-41-50.16S40,673.92,40,673.92s11.8,36.92,41,50.15S145.72,721.86,145.72,721.86Zm713.52-410s28.15,26.61,60.11,24.16S975,302.82,975,302.82s-28.14-26.6-60.1-24.16S859.24,311.83,859.24,311.83ZM805,210.54s27-27.83,24.93-59.76-32.44-56.07-32.44-56.07-27,27.79-24.94,59.78,32.45,56,32.45,56ZM579.77,280.85s35.69,15.13,64.75,1.64S685.08,232,685.08,232s-35.68-15.14-64.75-1.65S579.77,280.85,579.77,280.85Zm119.29,133c-31.8-4.13-61.28,21-61.28,21s22.07,31.86,53.85,36,61.32-21,61.32-21-22.11-31.86-53.89-36Zm19.23,161.65C741.35,597.71,780,595,780,595s1.24-38.73-21.85-61-61.76-19.56-61.76-19.56S695.21,553.23,718.29,575.46ZM873.68,687.69s-26.07,28.67-22.94,60.57,34.29,55,34.29,55,26.06-28.67,22.93-60.57S873.68,687.69,873.68,687.69Z"/>
    <path class="green"
          d="M145,348.34c-9.39,24.29-25.14,55.21-39.48,78.74-18.32,30.16-34.65,50.41-47.61,62.84a363.59,363.59,0,0,1,46.72,19.73c13.57-15.51,27.84-35.39,41.5-57.89,22.58-37.13,41.6-78,49.93-106.28,8-1.23,15.45-2.75,22.17-4.43Q252.91,426.7,321.08,491.3l1.24,1.15,2.53,2.37c1.33,1.23,2.67,2.44,4,3.66.94.89,1.89,1.68,2.83,2.53l2.29,2,2.86,2.48,2,1.7c1.88,1.61,3.8,3.22,5.73,4.8l1.48,1.23c1.11.88,2.23,1.77,3.35,2.72l1.69,1.36q5.43,4.3,11,8.5l2.19,1.64,1.78,1.33q6.42,4.76,13.06,9.32c-32.5,15.9-73.89,25.55-123.54,28.74a611.54,611.54,0,0,1-66.33.45q9.33,8.24,18.36,17.08,15,14.77,28.64,30.9,11.37-.3,22.37-1c68.8-4.44,124.78-20.48,166.58-47.75a651.39,651.39,0,0,0,78.73,36.58,418.62,418.62,0,0,0,4.95-49.22,559.35,559.35,0,0,1-91.7-47.51q-12.63-8.19-24.5-17l-1.93-1.45c-1.81-1.36-3.6-2.72-5.38-4.1l-1.52-1.19c-.89-.67-1.73-1.36-2.58-2l-2.39-1.91-2.19-1.77q-2.26-1.84-4.5-3.73L372,473q-2.49-2.1-4.94-4.23l-.41-.35c-47-40.93-82.08-89.94-104.79-146.34,35.18-23.06,75-64.75,109.09-115.18,7.54-11.15,15.52-23.79,23.6-37.86a378.36,378.36,0,0,0,49.78,3.18c6.34,0,12.76-.15,19.22-.44a425.31,425.31,0,0,0,93.84-14.88c69.25-19.13,127.93-54.77,169.91-103.16a490.76,490.76,0,0,0-45.58-20.61c-35,36-82,62.79-137,78-41.14,11.37-85.73,15.69-126.55,12.6A652.26,652.26,0,0,0,462,0Q450.33.89,438.6,2.35q-13.75,1.71-27.35,4.18a596.68,596.68,0,0,1-79.72,173.75C302,224.06,271,256.1,246.19,275l-.36-1.34c-10.16-38.81-15.22-80.85-15-124.92a607.5,607.5,0,0,1,5-73.83,494.94,494.94,0,0,0-51.24,36.87q-1.19,18.57-1.28,36.74c-.22,48.21,5.32,94.37,16.57,137.18q1.35,5.18,2.82,10.29c-19.77,4.44-46.42,7.23-78.81,3a291.35,291.35,0,0,1-71.15-19Q42.46,301.4,34.27,323.8a339.55,339.55,0,0,0,83.48,22.3c9,1.15,18.12,1.9,27.22,2.24Z"/>
    <path class="green"
          d="M817.06,384.79a466.53,466.53,0,0,1,89.32,34.73,586.17,586.17,0,0,1,89.24,56.4q-.82-21.3-3.44-42.58-1.27-10.21-3-20.32a609.79,609.79,0,0,0-61.31-35.89,509.28,509.28,0,0,0-107.32-40.51c6-19.36,16.95-43.83,36.78-69.78a292.36,292.36,0,0,1,52-52.1q-13.46-19.73-28.62-38A339.83,339.83,0,0,0,819.62,238q-8.68,11.37-15.58,22.44c-16.29-20.28-35.19-49.33-48.43-73.54-17-30.95-26.33-55.21-30.62-72.65a363.48,363.48,0,0,1-40.45,30.6c6.65,19.51,16.74,41.8,29.38,64.88,20.87,38.14,46.74,75,67.08,96.38-3,7.6-5.32,14.77-7.25,21.42q-6-.84-11.93-1.5c-62.33-6.93-124.79,0-185.64,20.53a488.86,488.86,0,0,0-53.52,21.78c2.47-36.1,14.82-76.78,36.88-121.38a612.22,612.22,0,0,1,32.78-57.65q-11.79,4-24,7.36c-13.53,3.73-27.26,6.84-41.07,9.34q-5.43,10-10.33,19.89C486.39,287.68,472.31,344.2,475,394A650.63,650.63,0,0,0,402.66,445a419.15,419.15,0,0,0,40.08,28.88C544.15,395.2,649.58,361.37,756.6,373.25q5.91.67,11.82,1.51c2.35,42,18.56,97.32,45.24,152.07q9.76,20.05,21,39.36a389,389,0,0,0-37,58.53,426.26,426.26,0,0,0-34,88.7c-18,69.49-16.52,138.08,4.35,198.61a498.74,498.74,0,0,0,40.69-29c-13.65-48.33-13.37-102.46,1-157.65,10.69-41.39,29.28-82.21,52.45-116a651.5,651.5,0,0,0,85.14,99.84,492.65,492.65,0,0,0,19.69-47.33A596.39,596.39,0,0,1,856.36,506c-23.13-47.48-35.38-90.36-39.3-121.23ZM331.33,112.05c11.63-29.87-5.75-64.51-5.75-64.51s-36.21,13.79-47.84,43.67,5.76,64.53,5.76,64.53,36.21-13.83,47.83-43.69ZM313.67,853.77s-30.06-24.49-61.75-19.59-53,37.25-53,37.25S229,895.89,260.67,891s53-37.25,53-37.25Z"/>
    <path class="green"
          d="M903.07,478.74S896.91,517,917,542s58.75,27.28,58.75,27.28S981.88,531,961.82,506,903.07,478.74,903.07,478.74Z"/>
</svg>
